<?xml version="1.0" encoding="UTF-8" standalone="no"?>
<!DOCTYPE svg PUBLIC "-//W3C//DTD SVG 1.1//EN" "http://www.w3.org/Graphics/SVG/1.1/DTD/svg11.dtd">
<svg width="100%" height="100%" viewBox="0 0 1767 1743" version="1.1" xmlns="http://www.w3.org/2000/svg" xmlns:xlink="http://www.w3.org/1999/xlink" xml:space="preserve" xmlns:serif="http://www.serif.com/" style="fill-rule:evenodd;clip-rule:evenodd;stroke-linejoin:round;stroke-miterlimit:2;">
    <g transform="matrix(1,0,0,1,-257.108,-373.123)">
        <g transform="matrix(1,0,0,1,-125.748,-268.042)">
            <path d="M456.59,1533.47C463.265,1428.9 554.131,1316.26 613.52,1236.35C841.601,929.483 1133.64,688.528 1527.64,646.565C1848.73,612.366 2160.94,737.744 2148.56,1105.05C2138.13,1414.35 1563.78,1670.54 1345.6,1841.04C1271.2,1899.19 1195.14,1957.57 1126.42,2022.56C1035.1,2108.91 957.783,2219.74 856.762,2294.83C702.065,2409.8 453.678,2444.07 400.618,2210.61C381.817,2127.89 389.285,2037.8 384.925,1953.51C380.961,1876.88 381.114,1788.81 399.833,1713.93C405.286,1692.12 437.235,1657.34 437.235,1639.92" style="fill:rgb(255,72,176);"/>
        </g>
    </g>
</svg>
