<?xml version="1.0" encoding="UTF-8" standalone="no"?>
<!DOCTYPE svg PUBLIC "-//W3C//DTD SVG 1.1//EN" "http://www.w3.org/Graphics/SVG/1.1/DTD/svg11.dtd">
<svg width="100%" height="100%" viewBox="0 0 2229 2135" version="1.1" xmlns="http://www.w3.org/2000/svg" xmlns:xlink="http://www.w3.org/1999/xlink" xml:space="preserve" xmlns:serif="http://www.serif.com/" style="fill-rule:evenodd;clip-rule:evenodd;stroke-linejoin:round;stroke-miterlimit:2;">
    <g transform="matrix(1,0,0,1,-158.931,-771.808)">
        <path d="M576.38,1644.62C794.21,1424.7 953.202,1156.21 1177.95,942.896C1303.12,824.089 1483.6,762.755 1654.23,772.891C1797.2,781.384 1969.97,829.293 2081.08,924.065C2372.52,1172.64 2453.59,1710.09 2333.48,2063.36C2266.24,2261.12 2060.73,2471.4 1834.7,2430.31C1729.63,2411.2 1619.38,2347.7 1511.16,2354.2C1419.34,2359.71 1344.52,2402.3 1271.84,2455.15C1186.72,2517.06 1136.51,2627.36 1062.08,2701.79C874.686,2889.18 501.503,2995.33 276.905,2806.67C81.321,2642.38 166.952,2341.36 262.258,2147.58C289.915,2091.34 330.863,2040.97 360.862,1985.42C391.49,1928.7 458.166,1800.56 503.879,1754.85" style="fill:rgb(241,80,96);"/>
    </g>
</svg>
