<?xml version="1.0" encoding="UTF-8" standalone="no"?>
<!DOCTYPE svg PUBLIC "-//W3C//DTD SVG 1.1//EN" "http://www.w3.org/Graphics/SVG/1.1/DTD/svg11.dtd">
<svg width="100%" height="100%" viewBox="0 0 1594 1992" version="1.1" xmlns="http://www.w3.org/2000/svg" xmlns:xlink="http://www.w3.org/1999/xlink" xml:space="preserve" xmlns:serif="http://www.serif.com/" style="fill-rule:evenodd;clip-rule:evenodd;stroke-linejoin:round;stroke-miterlimit:2;">
    <g transform="matrix(1,0,0,1,-674.597,-914.942)">
        <path d="M1159.11,993.374C1057.98,1038.49 938.583,1253.47 890.24,1348.29C642.935,1833.38 516.937,2378.84 1027.03,2742.59C1175.91,2848.76 1337.8,2915.63 1524.5,2905.54C2052.52,2876.99 2390.61,2326.03 2227.02,1835.29C2167.38,1656.35 1985.35,1517.04 1870.27,1374.71C1747.26,1222.56 1667.34,1049.51 1488.67,945.511C1409.27,899.3 1330.25,909.765 1254.06,948.388" style="fill:rgb(255,232,0);"/>
        <path d="M1419.82,2171.53C1223.38,2079.86 943.427,2361.89 1184.75,2532.57C1351.88,2650.78 1649.8,2487.77 1539.15,2283.06C1513.64,2235.86 1468.4,2202.05 1419.82,2171.53Z" style="fill:white;"/>
    </g>
</svg>
