<?xml version="1.0" encoding="UTF-8" standalone="no"?>
<!DOCTYPE svg PUBLIC "-//W3C//DTD SVG 1.1//EN" "http://www.w3.org/Graphics/SVG/1.1/DTD/svg11.dtd">
<svg width="100%" height="100%" viewBox="0 0 336 564" version="1.1" xmlns="http://www.w3.org/2000/svg" xmlns:xlink="http://www.w3.org/1999/xlink" xml:space="preserve" xmlns:serif="http://www.serif.com/" style="fill-rule:evenodd;clip-rule:evenodd;stroke-linejoin:round;stroke-miterlimit:2;">
    <g transform="matrix(1,0,0,1,-1089.48,-828.877)">
        <g transform="matrix(1,0,0,1,-145.376,203.727)">
            <path d="M1495.97,728.869C1440.68,680.491 1389.1,625.15 1309.69,625.15C1285.43,625.15 1231.77,636.78 1235,671.278C1237.98,703.066 1259.63,724.133 1275.67,749.206C1290.55,772.442 1320.17,831.269 1321.8,857.362C1324.57,901.606 1327.76,952.48 1318.75,996.024C1311.52,1030.97 1297.09,1064.48 1300.08,1101.31C1302.39,1129.82 1324.72,1172.67 1352.31,1182.11C1481.92,1226.45 1588.49,1038.74 1567.61,929.097C1558.44,880.97 1543.36,834.959 1528.32,788.771C1523.66,774.468 1515.52,757.994 1508.91,744.307C1505.76,737.777 1500.94,733.656 1496.52,728.129C1496.05,727.542 1492.91,724.536 1492.91,724.986" style="fill:rgb(0,120,191);fill-opacity:0.7;"/>
        </g>
    </g>
</svg>
