<?xml version="1.0" encoding="UTF-8" standalone="no"?>
<!DOCTYPE svg PUBLIC "-//W3C//DTD SVG 1.1//EN" "http://www.w3.org/Graphics/SVG/1.1/DTD/svg11.dtd">
<svg width="100%" height="100%" viewBox="0 0 393 821" version="1.1" xmlns="http://www.w3.org/2000/svg" xmlns:xlink="http://www.w3.org/1999/xlink" xml:space="preserve" xmlns:serif="http://www.serif.com/" style="fill-rule:evenodd;clip-rule:evenodd;stroke-linejoin:round;stroke-miterlimit:2;">
    <g transform="matrix(1,0,0,1,-287.844,-865.698)">
        <g transform="matrix(1,0,0,1,-105.376,203.727)">
            <path d="M655.384,673.959C640.318,680.578 629.165,691.824 615.264,700.12C519.886,757.037 464.537,857.22 430.378,959.695C418.497,995.336 404.303,1028.6 398.485,1066.09C390.103,1120.11 393.047,1177.01 398.208,1231.19C408.296,1337.12 485.228,1476.18 604.263,1482.45C667.021,1485.75 702.769,1470.94 744.591,1425.32C750.763,1418.59 759.452,1413.1 763.264,1404.52C801.678,1318.09 782.236,1148.35 761.416,1056.39C752.653,1017.69 742.598,981.95 740.524,941.853C736.344,861.057 782.907,784.354 767.702,703.263C760.227,663.4 683.673,648.133 666.569,676.64" style="fill:rgb(255,72,176);fill-opacity:0.7;"/>
        </g>
    </g>
</svg>
