<?xml version="1.0" encoding="UTF-8" standalone="no"?>
<!DOCTYPE svg PUBLIC "-//W3C//DTD SVG 1.1//EN" "http://www.w3.org/Graphics/SVG/1.1/DTD/svg11.dtd">
<svg width="100%" height="100%" viewBox="0 0 706 711" version="1.1" xmlns="http://www.w3.org/2000/svg" xmlns:xlink="http://www.w3.org/1999/xlink" xml:space="preserve" xmlns:serif="http://www.serif.com/" style="fill-rule:evenodd;clip-rule:evenodd;stroke-linejoin:round;stroke-miterlimit:2;">
    <g transform="matrix(1,0,0,1,-423.583,-907.508)">
        <path d="M922.856,919.988C863.804,890.106 743.489,928.935 687.975,953.297C597.076,993.187 494.483,1065.71 451.203,1158.29C438.059,1186.4 427.543,1218.04 425.545,1249.12C423.598,1279.4 431.005,1308.22 436.798,1337.62C455.6,1433.02 495.854,1534.19 590.565,1576.55C721.044,1634.9 903.634,1635.9 1011.71,1529.73C1058.95,1483.34 1083.96,1422.67 1102.64,1360.39C1113.88,1322.95 1125.18,1285.84 1127.31,1246.51C1135.59,1093.76 1061.06,976.894 922.856,919.988Z" style="fill:rgb(255,232,0);fill-opacity:0.7;"/>
    </g>
</svg>
