<?xml version="1.0" encoding="UTF-8" standalone="no"?>
<!DOCTYPE svg PUBLIC "-//W3C//DTD SVG 1.1//EN" "http://www.w3.org/Graphics/SVG/1.1/DTD/svg11.dtd">
<svg width="100%" height="100%" viewBox="0 0 408 325" version="1.1" xmlns="http://www.w3.org/2000/svg" xmlns:xlink="http://www.w3.org/1999/xlink" xml:space="preserve" xmlns:serif="http://www.serif.com/" style="fill-rule:evenodd;clip-rule:evenodd;stroke-linejoin:round;stroke-miterlimit:2;">
    <g transform="matrix(1,0,0,1,-806.138,-648.53)">
        <g transform="matrix(1,0,0,1,-105.376,203.727)">
            <path d="M1295.18,707.423C1342.02,632.48 1314.52,581.628 1252.01,526.7C1242.3,518.167 1228.85,514.874 1219.01,506.733C1193.9,485.957 1153.89,458.173 1122.04,449.789C1059.89,433.437 949.375,457.192 921.249,522.818C909.242,550.833 907.735,596.185 920.14,623.948C950.781,692.526 1082.16,763.193 1154.48,768.434C1210.71,772.508 1256.6,765.539 1287.97,715.003C1289.83,712.01 1295.14,710.334 1295.92,708.624" style="fill:rgb(0,120,191);fill-opacity:0.7;"/>
        </g>
    </g>
</svg>
