<?xml version="1.0" encoding="UTF-8" standalone="no"?>
<!DOCTYPE svg PUBLIC "-//W3C//DTD SVG 1.1//EN" "http://www.w3.org/Graphics/SVG/1.1/DTD/svg11.dtd">
<svg width="100%" height="100%" viewBox="0 0 372 395" version="1.1" xmlns="http://www.w3.org/2000/svg" xmlns:xlink="http://www.w3.org/1999/xlink" xml:space="preserve" xmlns:serif="http://www.serif.com/" style="fill-rule:evenodd;clip-rule:evenodd;stroke-linejoin:round;stroke-miterlimit:2;">
    <g transform="matrix(1,0,0,1,-446.04,-707.917)">
        <g transform="matrix(1,0,0,1,-105.376,203.727)">
            <path d="M884.18,645.395C853.626,597.019 818.421,542.351 763.819,518.38C692.171,486.926 612.606,508.355 573.757,576.803C563.39,595.068 553.327,609.712 551.755,631.713C547.769,687.523 579.564,741.788 611.104,784.796C616.199,791.744 617.908,800.75 624.046,807.074C674.434,858.989 761.804,922.35 838.605,889.069C910.669,857.842 944.834,752.208 907.29,681.539C903.341,674.106 895.241,669.917 890.188,663.421C887.722,660.249 888.328,652.934 886.398,651.218" style="fill:rgb(0,120,191);fill-opacity:0.7;"/>
        </g>
    </g>
</svg>
