<?xml version="1.0" encoding="UTF-8" standalone="no"?>
<!DOCTYPE svg PUBLIC "-//W3C//DTD SVG 1.1//EN" "http://www.w3.org/Graphics/SVG/1.1/DTD/svg11.dtd">
<svg width="100%" height="100%" viewBox="0 0 412 503" version="1.1" xmlns="http://www.w3.org/2000/svg" xmlns:xlink="http://www.w3.org/1999/xlink" xml:space="preserve" xmlns:serif="http://www.serif.com/" style="fill-rule:evenodd;clip-rule:evenodd;stroke-linejoin:round;stroke-miterlimit:2;">
    <g transform="matrix(1,0,0,1,-955.074,-1236.93)">
        <g transform="matrix(1,0,0,1,-105.376,203.727)">
            <path d="M1407.5,1043.45C1370.97,1015.03 1313.03,1051.61 1291.02,1081.99C1282.41,1093.88 1270.27,1108.57 1264.12,1121.74C1255.27,1140.72 1254.2,1161.87 1248.68,1181.65C1240.42,1211.24 1222.83,1248.44 1205.05,1273.62C1167.23,1327.2 1091.54,1355.64 1066.29,1417.92C1050.97,1455.72 1066.7,1501.66 1102.81,1520.54C1126.17,1532.75 1156.84,1534.28 1182.49,1535.14C1287.88,1538.69 1350.72,1501.05 1403.34,1413.86C1412.18,1399.2 1423.19,1384.45 1429.22,1368.38C1439.42,1341.18 1445.64,1311.48 1454.46,1283.7C1470.11,1234.43 1482.93,1165.43 1459.73,1115.92C1451.18,1097.68 1444.04,1076.27 1433.29,1059.25" style="fill:rgb(0,120,191);fill-opacity:0.7;"/>
        </g>
    </g>
</svg>
